<svg width="21" height="16" viewBox="0 0 21 16" fill="none" xmlns="http://www.w3.org/2000/svg">
<path d="M2.59338 11.1562H11.238" stroke="#5F2EEA" stroke-width="2" stroke-linecap="round"/>
<path d="M8.64459 4.59375H17.2892" stroke="#5F2EEA" stroke-width="2" stroke-linecap="round"/>
<path d="M17.1537 11.1562C17.1537 11.501 16.972 11.8851 16.5362 12.2159C16.0997 12.5473 15.4524 12.7812 14.6958 12.7812C13.9393 12.7812 13.2919 12.5473 12.8554 12.2159C12.4196 11.8851 12.238 11.501 12.238 11.1562C12.238 10.8115 12.4196 10.4274 12.8554 10.0966C13.2919 9.76523 13.9393 9.53125 14.6958 9.53125C15.4524 9.53125 16.0997 9.76523 16.5362 10.0966C16.972 10.4274 17.1537 10.8115 17.1537 11.1562Z" stroke="#5F2EEA" stroke-width="2"/>
<path d="M7.64463 4.59375C7.64463 4.9385 7.46299 5.32259 7.0272 5.65341C6.59071 5.98477 5.94334 6.21875 5.18679 6.21875C4.43023 6.21875 3.78286 5.98477 3.34637 5.65341C2.91059 5.32259 2.72894 4.9385 2.72894 4.59375C2.72894 4.249 2.91059 3.86491 3.34637 3.53409C3.78286 3.20273 4.43023 2.96875 5.18679 2.96875C5.94334 2.96875 6.59071 3.20273 7.0272 3.53409C7.46299 3.86491 7.64463 4.249 7.64463 4.59375Z" stroke="#5F2EEA" stroke-width="2"/>
</svg>
